<mxfile host="app.diagrams.net" modified="2021-10-19T12:44:52.831Z" agent="5.0 (Windows NT 10.0; Win64; x64) AppleWebKit/537.36 (KHTML, like Gecko) Chrome/94.0.4606.81 Safari/537.36" etag="orCPaxEcOCeR7Be9iF1J" version="15.5.5" type="github">
  <diagram id="C5RBs43oDa-KdzZeNtuy" name="Page-1">
    <mxGraphModel dx="1038" dy="556" grid="1" gridSize="10" guides="1" tooltips="1" connect="1" arrows="1" fold="1" page="1" pageScale="1" pageWidth="827" pageHeight="1169" math="0" shadow="0">
      <root>
        <mxCell id="WIyWlLk6GJQsqaUBKTNV-0" />
        <mxCell id="WIyWlLk6GJQsqaUBKTNV-1" parent="WIyWlLk6GJQsqaUBKTNV-0" />
        <mxCell id="WIyWlLk6GJQsqaUBKTNV-2" value="" style="rounded=0;html=1;jettySize=auto;orthogonalLoop=1;fontSize=11;endArrow=block;endFill=0;endSize=8;strokeWidth=1;shadow=0;labelBackgroundColor=none;edgeStyle=orthogonalEdgeStyle;" parent="WIyWlLk6GJQsqaUBKTNV-1" source="WIyWlLk6GJQsqaUBKTNV-3" edge="1">
          <mxGeometry relative="1" as="geometry">
            <mxPoint x="419" y="120" as="targetPoint" />
          </mxGeometry>
        </mxCell>
        <mxCell id="WIyWlLk6GJQsqaUBKTNV-3" value="Flowchart Indicating Processes Involved" style="rounded=1;whiteSpace=wrap;html=1;fontSize=12;glass=0;strokeWidth=1;shadow=0;" parent="WIyWlLk6GJQsqaUBKTNV-1" vertex="1">
          <mxGeometry x="308.5" y="40" width="221" height="40" as="geometry" />
        </mxCell>
        <mxCell id="WIyWlLk6GJQsqaUBKTNV-7" value="Literature Review" style="rounded=1;whiteSpace=wrap;html=1;fontSize=12;glass=0;strokeWidth=1;shadow=0;" parent="WIyWlLk6GJQsqaUBKTNV-1" vertex="1">
          <mxGeometry x="359" y="120" width="120" height="30" as="geometry" />
        </mxCell>
        <mxCell id="QujZ3hITiM_6tH3B1WZW-10" value="" style="edgeStyle=orthogonalEdgeStyle;rounded=0;orthogonalLoop=1;jettySize=auto;html=1;entryX=0.5;entryY=0;entryDx=0;entryDy=0;" edge="1" parent="WIyWlLk6GJQsqaUBKTNV-1" source="QujZ3hITiM_6tH3B1WZW-2" target="QujZ3hITiM_6tH3B1WZW-3">
          <mxGeometry relative="1" as="geometry" />
        </mxCell>
        <mxCell id="QujZ3hITiM_6tH3B1WZW-2" value="Data Collection" style="rounded=1;whiteSpace=wrap;html=1;fontSize=12;glass=0;strokeWidth=1;shadow=0;" vertex="1" parent="WIyWlLk6GJQsqaUBKTNV-1">
          <mxGeometry x="359" y="170" width="120" height="30" as="geometry" />
        </mxCell>
        <mxCell id="QujZ3hITiM_6tH3B1WZW-3" value="Model Development" style="rounded=1;whiteSpace=wrap;html=1;fontSize=12;glass=0;strokeWidth=1;shadow=0;" vertex="1" parent="WIyWlLk6GJQsqaUBKTNV-1">
          <mxGeometry x="359" y="220" width="120" height="30" as="geometry" />
        </mxCell>
        <mxCell id="QujZ3hITiM_6tH3B1WZW-6" value="Review &amp;amp; Feedback" style="rounded=1;whiteSpace=wrap;html=1;fontSize=12;glass=0;strokeWidth=1;shadow=0;" vertex="1" parent="WIyWlLk6GJQsqaUBKTNV-1">
          <mxGeometry x="359" y="420" width="120" height="30" as="geometry" />
        </mxCell>
        <mxCell id="QujZ3hITiM_6tH3B1WZW-7" value="Result &amp;amp; Discussion" style="rounded=1;whiteSpace=wrap;html=1;fontSize=12;glass=0;strokeWidth=1;shadow=0;" vertex="1" parent="WIyWlLk6GJQsqaUBKTNV-1">
          <mxGeometry x="359" y="370" width="120" height="30" as="geometry" />
        </mxCell>
        <mxCell id="QujZ3hITiM_6tH3B1WZW-8" value="Validation" style="rounded=1;whiteSpace=wrap;html=1;fontSize=12;glass=0;strokeWidth=1;shadow=0;" vertex="1" parent="WIyWlLk6GJQsqaUBKTNV-1">
          <mxGeometry x="359" y="320" width="120" height="30" as="geometry" />
        </mxCell>
        <mxCell id="QujZ3hITiM_6tH3B1WZW-9" value="Interferogram Generation" style="rounded=1;whiteSpace=wrap;html=1;fontSize=12;glass=0;strokeWidth=1;shadow=0;" vertex="1" parent="WIyWlLk6GJQsqaUBKTNV-1">
          <mxGeometry x="359" y="270" width="120" height="30" as="geometry" />
        </mxCell>
        <mxCell id="QujZ3hITiM_6tH3B1WZW-12" value="" style="edgeStyle=orthogonalEdgeStyle;rounded=0;orthogonalLoop=1;jettySize=auto;html=1;entryX=0.5;entryY=0;entryDx=0;entryDy=0;" edge="1" parent="WIyWlLk6GJQsqaUBKTNV-1">
          <mxGeometry relative="1" as="geometry">
            <mxPoint x="418.5" y="150" as="sourcePoint" />
            <mxPoint x="418.5" y="170" as="targetPoint" />
          </mxGeometry>
        </mxCell>
        <mxCell id="QujZ3hITiM_6tH3B1WZW-13" value="" style="edgeStyle=orthogonalEdgeStyle;rounded=0;orthogonalLoop=1;jettySize=auto;html=1;" edge="1" parent="WIyWlLk6GJQsqaUBKTNV-1" target="QujZ3hITiM_6tH3B1WZW-9">
          <mxGeometry relative="1" as="geometry">
            <mxPoint x="419" y="250" as="sourcePoint" />
            <mxPoint x="429" y="230" as="targetPoint" />
          </mxGeometry>
        </mxCell>
        <mxCell id="QujZ3hITiM_6tH3B1WZW-14" value="" style="edgeStyle=orthogonalEdgeStyle;rounded=0;orthogonalLoop=1;jettySize=auto;html=1;entryX=0.5;entryY=0;entryDx=0;entryDy=0;" edge="1" parent="WIyWlLk6GJQsqaUBKTNV-1" target="QujZ3hITiM_6tH3B1WZW-8">
          <mxGeometry relative="1" as="geometry">
            <mxPoint x="419" y="300" as="sourcePoint" />
            <mxPoint x="439" y="240" as="targetPoint" />
          </mxGeometry>
        </mxCell>
        <mxCell id="QujZ3hITiM_6tH3B1WZW-15" value="" style="edgeStyle=orthogonalEdgeStyle;rounded=0;orthogonalLoop=1;jettySize=auto;html=1;entryX=0.5;entryY=0;entryDx=0;entryDy=0;" edge="1" parent="WIyWlLk6GJQsqaUBKTNV-1" target="QujZ3hITiM_6tH3B1WZW-6">
          <mxGeometry relative="1" as="geometry">
            <mxPoint x="419" y="400" as="sourcePoint" />
            <mxPoint x="449" y="250" as="targetPoint" />
          </mxGeometry>
        </mxCell>
        <mxCell id="QujZ3hITiM_6tH3B1WZW-16" value="" style="edgeStyle=orthogonalEdgeStyle;rounded=0;orthogonalLoop=1;jettySize=auto;html=1;entryX=0.5;entryY=0;entryDx=0;entryDy=0;" edge="1" parent="WIyWlLk6GJQsqaUBKTNV-1" target="QujZ3hITiM_6tH3B1WZW-7">
          <mxGeometry relative="1" as="geometry">
            <mxPoint x="419" y="350" as="sourcePoint" />
            <mxPoint x="459" y="260" as="targetPoint" />
          </mxGeometry>
        </mxCell>
      </root>
    </mxGraphModel>
  </diagram>
</mxfile>
